<svg width="1000" height="1000" viewBox="0 0 1000 1000" fill="none" xmlns="http://www.w3.org/2000/svg">
<rect width="1000" height="1000" rx="500" fill="#2B3B46"/>
<path d="M258.969 558.031H352.816V528.832L367.953 545.238V573.168H278.207L258.969 558.031ZM324.984 521.801V446.02H352.816V416.82L367.953 443.969V461.156H340.414V521.801H324.984ZM192.562 416.82L220.785 441.039L228.207 456.566L219.809 474.828L192.562 416.82ZM94.418 558.031H181.625V528.832L188.754 534.203L195.98 550.609V573.168H117.172L94.418 558.031ZM208.383 558.031H235.043L270.785 475.609V516.625L267.562 521.801H251.84V558.031L245.004 573.168H228.793L208.383 558.031ZM94.418 551V528.832H122.152V438.988H94.418V416.82H184.555L220.199 493.578L253.598 416.82H345.785V438.988H317.953V528.832H345.785V551H259.164V528.832H277.816V441.625L230.355 551H204.184L155.355 442.211V528.832H174.594V551H94.418ZM162.191 521.801V475.219L177.621 508.422V521.801H162.191ZM94.418 446.02H115.219V461.156L94.418 446.02ZM500.277 451.391C512.647 460.049 521.762 469.001 527.621 478.246C533.546 487.491 536.508 497.549 536.508 508.422C536.508 528.734 529.411 545.401 515.219 558.422C501.026 571.443 482.569 577.953 459.848 577.953C446.762 577.953 434.783 575.74 423.91 571.312C413.103 566.951 402.882 560.18 393.246 551C400.147 554.841 407.764 557.706 416.098 559.594C424.496 561.482 433.741 562.426 443.832 562.426C469.483 562.426 488.656 557.152 501.352 546.605C514.112 535.993 520.492 519.978 520.492 498.559C520.492 489.053 518.93 480.688 515.805 473.461C512.745 466.234 507.569 458.878 500.277 451.391ZM447.25 530.395C447.12 530.395 446.924 530.427 446.664 530.492C444.451 530.688 442.79 530.785 441.684 530.785C436.866 530.785 433.285 528.214 430.941 523.07C428.598 517.927 427.426 509.984 427.426 499.242C427.426 487.523 428.663 479.385 431.137 474.828C433.676 470.271 437.973 467.992 444.027 467.992C448.845 467.992 452.426 469.522 454.77 472.582C457.178 475.642 458.546 480.427 458.871 486.938C457.243 486.026 455.811 485.375 454.574 484.984C453.402 484.594 452.23 484.398 451.059 484.398C448.715 484.398 446.957 485.408 445.785 487.426C444.613 489.379 444.027 492.374 444.027 496.41C444.027 502.53 444.288 508.454 444.809 514.184C445.395 519.913 446.208 525.316 447.25 530.395ZM420.492 499.047C420.492 512.654 422.283 522.387 425.863 528.246C429.509 534.105 435.499 537.035 443.832 537.035C452.165 537.035 458.155 534.105 461.801 528.246C465.447 522.387 467.27 512.654 467.27 499.047C467.27 485.375 465.447 475.609 461.801 469.75C458.155 463.891 452.165 460.961 443.832 460.961C435.499 460.961 429.509 463.891 425.863 469.75C422.283 475.609 420.492 485.375 420.492 499.047ZM512.68 499.047C512.68 518.122 507.016 532.283 495.688 541.527C484.359 550.772 467.074 555.395 443.832 555.395C420.655 555.395 403.402 550.772 392.074 541.527C380.746 532.283 375.082 518.122 375.082 499.047C375.082 480.102 380.779 465.974 392.172 456.664C403.63 447.289 420.85 442.602 443.832 442.602C467.074 442.602 484.359 447.224 495.688 456.469C507.016 465.714 512.68 479.906 512.68 499.047ZM634.555 514.379H684.359C681.56 528.051 674.398 538.337 662.875 545.238C651.352 552.139 635.564 555.59 615.512 555.59C592.53 555.59 575.212 550.87 563.559 541.43C551.97 531.924 546.176 517.862 546.176 499.242C546.176 481.729 551.482 467.927 562.094 457.836C572.706 447.68 587.126 442.602 605.355 442.602C612.647 442.602 619.32 443.708 625.375 445.922C631.43 448.07 637.029 451.358 642.172 455.785V446.801H678.305V481.566H637.973C636.931 474.6 634.555 469.392 630.844 465.941C627.198 462.491 622.087 460.766 615.512 460.766C607.309 460.766 601.352 463.76 597.641 469.75C593.995 475.74 592.172 485.505 592.172 499.047C592.172 512.523 593.93 522.257 597.445 528.246C601.026 534.236 606.788 537.23 614.73 537.23C620.98 537.23 625.831 535.212 629.281 531.176C632.797 527.139 634.555 521.54 634.555 514.379ZM637.973 488.598H685.336V446.801L700.57 460.961V503.832H655.746L637.973 488.598ZM691.781 514.379L705.551 526.977C700.342 543.904 691.423 556.664 678.793 565.258C666.228 573.917 650.212 578.246 630.746 578.246C618.116 578.246 606.365 576 595.492 571.508C584.685 567.016 574.496 560.18 564.926 551C571.827 554.971 579.379 557.901 587.582 559.789C595.785 561.677 605.095 562.621 615.512 562.621C637.712 562.621 655.128 558.617 667.758 550.609C680.388 542.602 688.396 530.525 691.781 514.379ZM618.93 530.395C618.148 530.525 617.367 530.622 616.586 530.688C615.805 530.753 614.926 530.785 613.949 530.785C608.806 530.785 605.03 528.279 602.621 523.266C600.277 518.253 599.105 510.245 599.105 499.242C599.105 487.523 600.342 479.385 602.816 474.828C605.355 470.271 609.652 467.992 615.707 467.992C620.525 467.992 624.105 469.522 626.449 472.582C628.858 475.642 630.225 480.427 630.551 486.938C628.923 486.026 627.491 485.375 626.254 484.984C625.082 484.594 623.91 484.398 622.738 484.398C620.329 484.398 618.507 485.44 617.27 487.523C616.098 489.542 615.512 492.569 615.512 496.605C615.512 502.009 615.805 507.576 616.391 513.305C616.977 519.034 617.823 524.73 618.93 530.395ZM805.941 521.801H782.992V515.16L798.812 508.422L805.941 521.801ZM729.574 461.156L711.996 446.02H729.574V461.156ZM736.605 438.988H711.996V416.82H775.961V489.379L820.98 468.969H804.574V446.801H883.188V468.969H866L837.777 482.641L863.168 528.832H883.188V551H830.941L801.938 499.438L775.961 511.156V528.832H800.961V551H711.996V528.832H736.605V438.988ZM832.992 558.031H890.023V528.832L905.355 539.379V573.168H853.012L832.992 558.031ZM798.227 472.387L782.992 479.418V416.82L798.227 430.98V472.387ZM711.996 558.031H807.992V532.445L815.023 538.402L823.227 551.586V573.168H733.969L711.996 558.031ZM890.023 446.801L905.355 460.961V491.039H871.762L859.555 496.996L872.934 521.801H867.172L847.348 485.57L867.367 476H890.023V446.801Z" fill="#EEEABF"/>
</svg>
